# xmcd CD database file
#
# Track frame offsets:
#	900
#	18375
#	36750
#	62850
#	91050
#	107175
#	125025
#	150000
#	169125
#	195600
#	213525
#	245025
#	264675
#	281400
#
# Disc length: 4013 seconds
#
# Revision: 0
# Processed by: cddbd v1.5.2PL0 Copyright (c) Steve Scherf et al.
# Submitted via: cddb-tool 0.4.7
#
DISCID=c50fa10e
DTITLE=Joe Cocker - Live Im Rockpalast
DYEAR=1983
DGENRE=Rock
TTITLE0=A Girl Like You
TTITLE1=Feeling Alright
TTITLE2=A Whiter Shade Of Pale
TTITLE3=Inner City Blues
TTITLE4=Don't Talk To Me
TTITLE5=Just Like Always
TTITLE6=Many Rivers To Cross
TTITLE7=Threw It Away
TTITLE8=Seven Days
TTITLE9=Watching The River Flow
TTITLE10=With A Little Help From My Frinds
TTITLE11=The Letter
TTITLE12=The Moon Is A Harsh Mistress
TTITLE13=I Heared It Through The Grapevine
EXTD=
EXTT0=
EXTT1=
EXTT2=
EXTT3=
EXTT4=
EXTT5=
EXTT6=
EXTT7=
EXTT8=
EXTT9=
EXTT10=
EXTT11=
EXTT12=
EXTT13=
PLAYORDER=
